<?xml version="1.0" encoding="UTF-8"?>
<svg width="1400" height="1400" fill="#000000" version="1.1" viewBox="0 0 896 896" xml:space="preserve" xmlns="http://www.w3.org/2000/svg" xmlns:xlink="http://www.w3.org/1999/xlink"><defs><radialGradient id="a" cx="448" cy="448" r="448" gradientUnits="userSpaceOnUse"><stop stop-color="#ffba0a" offset=".15976"/><stop stop-color="#ef8e00" offset=".84061"/><stop stop-color="#c76b00" offset=".99886"/></radialGradient><filter id="b" x="-.075178" y="-.075178" width="1.1504" height="1.1504" color-interpolation-filters="sRGB"><feGaussianBlur stdDeviation="28.066436"/></filter></defs>
<rect width="896" height="896" fill="#c76b00"/><rect width="896" height="896" fill="url(#a)" filter="url(#b)" style="mix-blend-mode:normal"/><g transform="translate(263.29 3.6632e-5)">
	
</g>
<g transform="translate(19.968)" fill="#252525"><path d="m132.35 250.03-62.336 62.335 135.64 135.64-135.64 135.64 62.336 62.335 197.97-197.97-62.335-62.336z" stroke="#000" stroke-width="1.4938"/><g transform="matrix(.83115 0 0 .83115 68.215 38.646)"><path transform="translate(263.29 3.6632e-5)" d="m592.97 197.94c-5.506-4.705-12.783-6.767-19.958-5.635l-313.81 49.548c-12.04 1.901-20.909 12.28-20.909 24.47v256h-49.549c-54.642.001-99.097 40.751-99.097 90.839 0 50.089 44.455 90.839 99.097 90.839s99.097-40.75 99.097-90.839v-226.57l264.26-41.725v136.17h-49.548c-54.642 0-99.097 40.75-99.097 90.839s44.455 90.839 99.097 90.839 99.096-40.751 99.096-90.839v-355.1c0-7.245-3.173-14.128-8.681-18.835z"/><rect x="352.94" y="725.8" width="512" height="67.236"/></g></g></svg>
